<svg width="84" height="23" viewBox="0 0 84 23" fill="none" xmlns="http://www.w3.org/2000/svg">
<path d="M7.904 22.384C6.28267 22.384 4.91733 22.128 3.808 21.616C2.69867 21.0827 1.70667 20.336 0.832 19.376L3.616 16.56C4.21333 17.2213 4.87467 17.744 5.6 18.128C6.32533 18.512 7.14667 18.704 8.064 18.704C9.00267 18.704 9.65333 18.5653 10.016 18.288C10.3787 17.9893 10.56 17.5947 10.56 17.104C10.56 16.3147 9.99467 15.8453 8.864 15.696L7.04 15.472C3.264 15.0027 1.376 13.2747 1.376 10.288C1.376 9.47733 1.52533 8.74133 1.824 8.08C2.144 7.39733 2.58133 6.82133 3.136 6.352C3.712 5.86133 4.39467 5.488 5.184 5.232C5.99467 4.95467 6.90133 4.816 7.904 4.816C8.77867 4.816 9.54667 4.88 10.208 5.008C10.8907 5.11467 11.488 5.28533 12 5.52C12.5333 5.73333 13.0133 6.01067 13.44 6.352C13.888 6.672 14.3253 7.03467 14.752 7.44L12.032 10.224C11.4987 9.69067 10.8907 9.27467 10.208 8.976C9.54667 8.656 8.864 8.496 8.16 8.496C7.34933 8.496 6.77333 8.624 6.432 8.88C6.09067 9.136 5.92 9.47733 5.92 9.904C5.92 10.352 6.03733 10.704 6.272 10.96C6.528 11.1947 6.99733 11.3653 7.68 11.472L9.568 11.728C13.2587 12.2187 15.104 13.904 15.104 16.784C15.104 17.5947 14.9333 18.3413 14.592 19.024C14.2507 19.7067 13.76 20.304 13.12 20.816C12.5013 21.3067 11.744 21.6907 10.848 21.968C9.97333 22.2453 8.992 22.384 7.904 22.384ZM23.171 22C21.5283 22 20.2803 21.584 19.427 20.752C18.595 19.92 18.179 18.704 18.179 17.104V8.88H15.811V5.2H16.995C17.635 5.2 18.0723 5.05067 18.307 4.752C18.5417 4.432 18.659 3.984 18.659 3.408V0.655998H22.915V5.2H26.243V8.88H22.915V18.32H25.987V22H23.171ZM28.733 22V5.2H33.469V8.848H33.629C33.7143 8.37867 33.8637 7.93067 34.077 7.504C34.2903 7.056 34.5677 6.66133 34.909 6.32C35.2717 5.97867 35.6983 5.712 36.189 5.52C36.6797 5.30667 37.2557 5.2 37.917 5.2H38.749V9.616H37.565C36.1783 9.616 35.1437 9.79733 34.461 10.16C33.7997 10.5227 33.469 11.1947 33.469 12.176V22H28.733ZM50.7905 19.184H50.6305C50.4812 19.6107 50.2785 20.016 50.0225 20.4C49.7878 20.784 49.4785 21.1253 49.0945 21.424C48.7105 21.7227 48.2518 21.9573 47.7185 22.128C47.2065 22.2987 46.6092 22.384 45.9265 22.384C44.1985 22.384 42.8865 21.8187 41.9905 20.688C41.1158 19.536 40.6785 17.8933 40.6785 15.76V5.2H45.4145V15.344C45.4145 16.368 45.5958 17.1573 45.9585 17.712C46.3212 18.2667 46.9398 18.544 47.8145 18.544C48.1772 18.544 48.5398 18.4907 48.9025 18.384C49.2652 18.2773 49.5852 18.128 49.8625 17.936C50.1398 17.7227 50.3638 17.4667 50.5345 17.168C50.7052 16.8693 50.7905 16.5173 50.7905 16.112V5.2H55.5265V22H50.7905V19.184ZM65.917 22.384C64.6583 22.384 63.5383 22.1813 62.557 21.776C61.5757 21.3493 60.7543 20.7627 60.093 20.016C59.4317 19.248 58.9303 18.32 58.589 17.232C58.2477 16.144 58.077 14.928 58.077 13.584C58.077 12.24 58.2477 11.0347 58.589 9.968C58.9303 8.88 59.4317 7.952 60.093 7.184C60.7543 6.416 61.5757 5.82933 62.557 5.424C63.5383 5.01867 64.6583 4.816 65.917 4.816C67.6237 4.816 69.0423 5.2 70.173 5.968C71.325 6.736 72.1463 7.81333 72.637 9.2L68.797 10.864C68.6477 10.224 68.3383 9.68 67.869 9.232C67.3997 8.784 66.749 8.56 65.917 8.56C64.957 8.56 64.2317 8.88 63.741 9.52C63.2503 10.1387 63.005 10.9813 63.005 12.048V15.184C63.005 16.2507 63.2503 17.0933 63.741 17.712C64.2317 18.3307 64.957 18.64 65.917 18.64C66.7703 18.64 67.4423 18.416 67.933 17.968C68.445 17.4987 68.8183 16.8907 69.053 16.144L72.733 17.744C72.1783 19.344 71.3143 20.5173 70.141 21.264C68.989 22.0107 67.581 22.384 65.917 22.384ZM80.7523 22C79.1096 22 77.8616 21.584 77.0083 20.752C76.1763 19.92 75.7603 18.704 75.7603 17.104V8.88H73.3923V5.2H74.5763C75.2163 5.2 75.6536 5.05067 75.8883 4.752C76.1229 4.432 76.2403 3.984 76.2403 3.408V0.655998H80.4963V5.2H83.8243V8.88H80.4963V18.32H83.5683V22H80.7523Z" fill="black"/>
</svg>
